Full name: Kak.priruchit.drakona.2010.P.BDRip.720p.mkv
Format: Matroska
File size: 4.68 GiB
Duration: 1 hr 37 m
Overall bit rate: 6846 Kbps
Encoded date: UTC 2010-10-03 08:12:15
Program coding: mkvmerge v3.4.0 ('Rapunzel') built on May 15 2010 9:38:20
Encoding library: libebml v0.8.0 + libmatroska v0.9.0
Video
Identifier: 1
Format: AVC
Format / Info: Advanced Video Codec
Profile format: High@L3.1
Options CABAC format: Yes
Options ReFrames size: 5 shots
Format_Settings_GOP: M = 4, N = 32
Codec ID: V_MPEG4/ISO/AVC
Duration: 1 hr 37 m
Bitrate: 5755 kbit / s
Width: 1280 pixels.
Height: 544 pixels.
Aspect ratio: 2,35:1
Frame rate: 23.976 fps
ColorSpace: YUV
ChromaSubsampling: 4:2:0
BitDepth / String: 8 bits
Scan type: Progressive
Bits / (Pixel * Frame): 0.345
Stream size: 3.84 GiB (82%)
Encoding library: x264 core 106 r1732 b20059a
Program settings: cabac = 1 / ref = 5 / deblock = 1:0:0 / analyse = 0x3: 0x113 / me = umh / subme = 8 / psy = 1 / psy_rd = 1.00:0.20 / mixed_ref = 1 / me_range = 16 / chroma_me = 1 / trellis = 1 / 8x8dct = 1 / cqm = 0 / deadzone = 21,11 / fast_pskip = 1 / chroma_qp_offset =- 3 / threads = 12 / sliced_threads = 0 / nr = 0 / decimate = 1 / interlaced = 0 / constrained_intra = 0 / bframes = 3 / b_pyramid = 2 / b_adapt = 1 / b_bias = 0 / direct = 3 / weightb = 1 / open_gop = 0 / weightp = 2 / keyint = 250 / keyint_min = 23 / scenecut = 40 / intra_refresh = 0 / rc_lookahead = 40 / rc = 2pass / mbtree = 1 / bitrate = 5755 / ratetol = 1.0 / qcomp = 0.60 / qpmin = 10 / qpmax = 51 / qpstep = 4 / cplxblur = 20.0 / qblur = 0.5 / ip_ratio = 1.40 / aq = 1:1.00
Language: English
Audio # 1
Identifier: 2
Format: AC-3
Format / Info: Audio Coding 3
Format_Settings_ModeExtension: CM (complete main)
Codec ID: A_AC3
Duration: 1 hr 37 m
Bit rate mode: Constant
Bitrate: 448 kbps
Channel (s): 6 channel (s)
The location of channels: Front: LCR, Side: LR, LFE
Frequency: 48.0 kHz
BitDepth / String: 16 bits
Stream size: 314 MiB (7%)
Title: Russian @ DD 5.1 @ 448 kbps
Language: Russian
Audio # 2
Identifier: 3
Format: AC-3
Format / Info: Audio Coding 3
Format_Settings_ModeExtension: CM (complete main)
Codec ID: A_AC3
Duration: 1 hr 37 m
Bit rate mode: Constant
Bitrate: 640 kbit / s
Channel (s): 6 channel (s)
The location of channels: Front: LCR, Side: LR, LFE
Frequency: 48.0 kHz
BitDepth / String: 16 bits
Stream size: 448 MiB (9%)
Title: English @ DD 5.1 @ 640 kbps
Language: English
Text
Identifier: 4
Format: UTF-8
Codec ID: S_TEXT/UTF8
Codec ID / Info: UTF-8 Plain Text
Language: English
Menu
00:00:00.000: en: 00:00:00.000
00:08:39.811: en: 00:08:39.811
00:11:31.983: en: 00:11:31.983
00:15:11.035: en: 00:15:11.035
00:21:57.107: en: 00:21:57.107
00:27:41.702: en: 00:27:41.702
00:33:14.201: en: 00:33:14.201
00:39:07.136: en: 00:39:07.136
00:43:28.731: en: 00:43:28.731
00:47:08.367: en: 00:47:08.367
00:49:47.193: en: 00:49:47.193
00:59:55.801: en: 00:59:55.801
01:04:47.383: en: 01:04:47.383
01:09:28.164: en: 01:09:28.164
01:12:38.187: en: 01:12:38.187
01:23:26.043: en: 01:23:26.043
01:28:54.496: en: 01:28:54.496
